<?xml version="1.0" encoding="utf-8"?>
<!-- Generator: Adobe Illustrator 19.0.0, SVG Export Plug-In . SVG Version: 6.00 Build 0)  -->
<svg version="1.1" id="Layer_1" xmlns="http://www.w3.org/2000/svg" xmlns:xlink="http://www.w3.org/1999/xlink" x="0px" y="0px"
	 viewBox="146.7 -448.6 1038.3 1040" style="enable-background:new 146.7 -448.6 1038.3 1040;" xml:space="preserve">
<style type="text/css">
	.st0{opacity:0.1;fill:#FFFFFF;enable-background:new    ;}
	.st1{fill:none;stroke:#FFFFFF;stroke-width:13;stroke-miterlimit:10;stroke-dasharray:30.9719;}
	.st2{fill:none;stroke:#FFFFFF;stroke-width:20;stroke-miterlimit:10;stroke-dasharray:7.116,35.58;}
	.st3{fill:none;stroke:#FFFFFF;stroke-width:9;stroke-miterlimit:10;}
	.st4{fill:none;stroke:#FFFFFF;stroke-width:6;stroke-miterlimit:10;}
	.st5{fill:#FFFFFF;}
	.st6{clip-path:url(#SVGID_2_);fill:#FFFFFF;}
	.st7{clip-path:url(#SVGID_4_);fill:#FFFFFF;}
</style>
<g>
	<path class="st0" d="M1076.3,148L1076.3,148c-19.5-19.5-47.3-23.4-62.1-8.6l-47.8,47.8c-10.3,10.3-29.7,7.6-43.3-6l0,0
		c-13.6-13.6-16.3-33-6-43.3l246.4-246.4c14.8-14.8,10.9-42.6-8.6-62.1l0,0c-19.5-19.5-47.3-23.4-62.1-8.6L890.2,23.4
		c-10.3,10.3-29.7,7.6-43.3-6l0,0c-13.6-13.6-16.3-33-6-43.3L845-30c14.8-14.8,10.9-42.6-8.6-62.1l0,0
		c-19.5-19.5-47.3-23.4-62.1-8.6l-282,282c-14.8,14.8-10.9,42.6,8.6,62.1l0,0c19.5,19.5,47.3,23.4,62.1,8.6l54.3-54.3
		c10.3-10.3,29.7-7.6,43.3,6l0,0c13.6,13.6,16.3,33,6,43.3L398.8,514.8c-14.8,14.8-10.9,42.6,8.6,62.1l0,0
		c19.5,19.5,47.3,23.4,62.1,8.6l224-224c10.3-10.3,29.7-7.6,43.3,6l0,0c13.6,13.6,16.3,33,6,43.3l-10.5,10.5
		c-14.8,14.8-10.9,42.6,8.6,62.1l0,0c19.5,19.5,47.3,23.4,62.1,8.6l281.9-281.9C1099.7,195.3,1095.8,167.5,1076.3,148z"/>
	<path class="st0" d="M836.3-92.1L836.3-92.1c-19.5-19.5-47.3-23.4-62.1-8.6l-47.8,47.8c-10.3,10.3-29.7,7.6-43.3-6l0,0
		c-13.6-13.6-16.3-33-6-43.3l246.4-246.4c14.8-14.8,10.9-42.6-8.6-62.1l0,0c-19.5-19.5-47.3-23.4-62.1-8.6L650.2-216.6
		c-10.3,10.3-29.7,7.6-43.3-6l0,0c-13.6-13.6-16.3-33-6-43.3l4.1-4.1c14.8-14.8,10.9-42.6-8.6-62.1l0,0
		c-19.5-19.5-47.3-23.4-62.1-8.6l-282,281.9c-14.8,14.8-10.9,42.6,8.6,62.1l0,0c19.5,19.5,47.3,23.4,62.1,8.6l54.3-54.3
		c10.3-10.3,29.7-7.6,43.3,6l0,0c13.6,13.6,16.3,33,6,43.3L158.8,274.7c-14.8,14.8-10.9,42.6,8.6,62.1l0,0
		c19.5,19.5,47.3,23.4,62.1,8.6l224-224c10.3-10.3,29.7-7.6,43.3,6l0,0c13.6,13.6,16.3,33,6,43.3l-10.5,10.5
		c-14.8,14.8-10.9,42.6,8.6,62.1l0,0c19.5,19.5,47.3,23.4,62.1,8.6L844.9-30C859.7-44.7,855.8-72.5,836.3-92.1z"/>
</g>
<path class="st1" d="M1019.9,151.9c21.1,27,30.1,60,35.1,94c7,45-5,87-29,125c-3,3-5,6-7,10c-2,2-4,4-5,7c-2,2-4,4-6,6c-1,1-1,3-2,4
	c-41,48-103,69-164,65c-51-4-98-28-132-67c-1-1,0-2-1-3c-2-1-4-3-5.2-5.2"/>
<path class="st2" d="M340.4,6.5C334-6.3,328.1-18.9,324-33.6c-0.2-2-0.2-3-0.4-5c-19.4-71.7,9.9-148.2,71-188.9
	c0.9-1.1,1.8-2.1,2.8-3.2c58.2-39.5,136.2-42.3,195.5-5.1"/>
<circle id="XMLID_205_" class="st3" cx="675.9" cy="-235.6" r="29.6"/>
<circle id="XMLID_1_" class="st4" cx="769.3" cy="-268.1" r="17.8"/>
<circle id="XMLID_147_" class="st5" cx="352.2" cy="99.9" r="18.8"/>
<circle id="XMLID_2_" class="st5" cx="870.1" cy="-227.9" r="21.7"/>
<path class="st5" d="M375.6,199.6h-18.3v-18.3c0-3-2.4-5.4-5.4-5.4s-5.4,2.4-5.4,5.4v18.3h-18.2c-3,0-5.4,2.4-5.4,5.4
	s2.4,5.4,5.4,5.4h18.3v18.3c0,3,2.4,5.4,5.4,5.4s5.4-2.4,5.4-5.4v-18.3h18.3c3,0,5.4-2.4,5.4-5.4C381,202,378.6,199.6,375.6,199.6z"
	/>
<g>
	<g>
		<g>
			<defs>
				<rect id="SVGID_1_" x="470" y="-104.8" width="390.9" height="391.8"/>
			</defs>
			<clipPath id="SVGID_2_">
				<use xlink:href="#SVGID_1_"  style="overflow:visible;"/>
			</clipPath>
			<path class="st6" d="M704.4,90.8c13.1,0,24-9.8,25.7-22.5l23.8-17.8c2.9-2.2,3.5-6.2,1.3-9.1s-6.2-3.5-9.1-1.3l-16.6,12.4
				c-2.5-7.9-9.8-13.7-18.6-13.7h-26c-10.8,0-19.5,8.8-19.5,19.5c0-10.8-8.8-19.5-19.5-19.5h-26c-8.8,0-16.1,5.8-18.6,13.7
				l-16.6-12.4c-2.9-2.2-7-1.6-9.1,1.3c-2.2,2.9-1.6,7,1.3,9.1l23.8,17.8c1.7,12.7,12.5,22.5,25.7,22.5h13c14.4,0,26-11.7,26-26
				c0,14.4,11.7,26,26,26H704.4z M652.3,64.8c0,7.2-5.8,13-13,13h-13c-7.2,0-13-5.8-13-13v-6.5c0-3.6,2.9-6.5,6.5-6.5h26
				c3.6,0,6.5,2.9,6.5,6.5V64.8z M678.3,64.8v-6.5c0-3.6,2.9-6.5,6.5-6.5h26c3.6,0,6.5,2.9,6.5,6.5v6.5c0,7.2-5.8,13-13,13h-13
				C684.2,77.8,678.3,72,678.3,64.8L678.3,64.8z"/>
		</g>
		<g>
			<defs>
				<rect id="SVGID_3_" x="470" y="-104.8" width="390.9" height="391.8"/>
			</defs>
			<clipPath id="SVGID_4_">
				<use xlink:href="#SVGID_3_"  style="overflow:visible;"/>
			</clipPath>
			<path class="st7" d="M860.4,278l-6.7-26.5c-3.3-10-23.1-42.3-136.4-43.2v-6.8c0-3.6-2.9-6.5-6.5-6.5c-3.6,0-6.5,2.9-6.5,6.5v13
				v0.1v0.1c0,4-1.3,38.8-39.1,38.8c-37.7,0-39-35.1-39.1-39.1v-13c0-3.6-2.9-6.5-6.5-6.5c-3.6,0-6.5,2.9-6.5,6.5v6.6
				c-84.4,0.7-126.6,14.1-136.5,43.9l-6.5,26c-0.9,3.5,1.3,7,4.7,7.9c3.5,0.9,7-1.2,7.9-4.7l6.4-25.6c7.6-22.7,48.3-34,124.5-34.6
				c2.4,18.6,15,45.5,51.6,45.5c36.6,0,49.3-26.7,51.6-45.3c89.2,0.7,120.2,21.7,124.3,33.8l6.5,26c0.7,3,3.4,4.9,6.3,4.9
				c0.5,0,1.1-0.1,1.6-0.2C859.2,285,861.3,281.5,860.4,278L860.4,278z"/>
		</g>
	</g>
	<path class="st5" d="M514.8-72l149.7,19.5c0.3,0,0.6,0.1,0.8,0.1c0.3,0,0.6,0,0.8-0.1l142.4-18.6v22.6c-4.1,4.6-13,16-13,28.6
		c0,14.3,11.7,19.5,19.5,19.5c7.8,0,19.5-5.2,19.5-19.5c0-12.5-8.9-24-13-28.6v-30c0-0.9-0.2-1.7-0.5-2.4c-0.1-0.3-0.3-0.5-0.4-0.7
		c-0.3-0.5-0.5-0.9-0.9-1.3c-0.2-0.2-0.5-0.4-0.8-0.6c-0.4-0.3-0.7-0.6-1.2-0.8c-0.3-0.2-0.7-0.2-1-0.3s-0.6-0.3-0.9-0.3
		l-149.7-19.5c-0.6-0.1-1.1-0.1-1.7,0L514.7-84.9c-3.2,0.4-5.7,3.2-5.7,6.5C509.1-75.2,511.5-72.4,514.8-72L514.8-72z M821.6-19.9
		c0,5.2-3.5,6.4-6.5,6.5c-3-0.1-6.5-1.3-6.5-6.5c0-5.4,3.3-11.4,6.5-15.9C818.2-31.3,821.6-25.3,821.6-19.9L821.6-19.9z M665.3-91.4
		l99.4,13l-99.4,13l-99.4-13L665.3-91.4z"/>
	<path class="st5" d="M680.3,131.7c-0.2,0.2-5.1,4.7-15,4.7c-9.7,0-14.7-4.4-15-4.7c-2.5-2.5-6.6-2.5-9.1,0.1
		c-2.5,2.5-2.5,6.7,0,9.2c0.9,0.9,8.9,8.4,24.1,8.4c15.3,0,23.3-7.6,24.1-8.4c2.5-2.5,2.5-6.5,0-9.1
		C687,129.3,682.9,129.3,680.3,131.7L680.3,131.7z"/>
	<path class="st5" d="M561.2,26.8c-7.6,2.7-13,9.9-13,18.4v26c0,9.1,6.2,16.7,14.6,18.9c3.5,10.3,13.1,38.1,18.6,49.1
		c10.3,20.7,39.7,55.7,83.9,55.7c44.3,0,73.6-35,83.9-55.7c5.5-11,15.1-38.8,18.6-49.1c8.4-2.2,14.7-9.8,14.7-18.9v-26
		c0-8.5-5.4-15.7-13-18.4v-7.6c0-3.6-2.9-6.5-6.5-6.5c-3.6,0-6.5,2.9-6.5,6.5v13c0,3.6,2.9,6.5,6.5,6.5c3.6,0,6.5,2.9,6.5,6.5v26
		c0,3.6-2.9,6.5-6.5,6.5c-2.8,0-5.3,1.8-6.2,4.5c-0.1,0.4-13,38.8-19.2,51.2c-1,2-24.8,48.5-72.3,48.5S594,135.4,593,133.4
		c-6.2-12.5-19-50.8-19.2-51.2c-0.9-2.7-3.4-4.5-6.2-4.5c-3.6,0-6.5-2.9-6.5-6.5v-26c0-3.6,2.9-6.5,6.5-6.5c3.6,0,6.5-2.9,6.5-6.5
		v-13c0-3.6-2.9-6.5-6.5-6.5c-3.6,0-6.5,2.9-6.5,6.5v7.6H561.2z"/>
	<path class="st5" d="M567.7-58.9c-3.6,0-6.5,2.9-6.5,6.5v45.6c0,2.5,1.4,4.7,3.6,5.8c1.7,0.8,41.1,20.2,100.6,20.2
		C724.8,19.2,764.3-0.2,766-1c2.2-1.1,3.6-3.4,3.6-5.8v-45.6c0-3.6-2.9-6.5-6.5-6.5c-3.6,0-6.5,2.9-6.5,6.5V-11
		c-10.8,4.6-44.8,17.2-91.1,17.2c-46.3,0-80.4-12.7-91.1-17.2v-41.4C574.2-56,571.3-58.9,567.7-58.9L567.7-58.9z"/>
</g>
<path class="st5" d="M891-165.1H445c-18.2,0-33,14.8-33,33v446c0,18.2,14.8,33,33,33h446c18.2,0,33-14.8,33-33v-446
	C924-150.3,909.2-165.1,891-165.1z M909,313.9c0,9.9-8.1,18-18,18H445c-9.9,0-18-8.1-18-18v-377h0.2c0-0.3-0.1-0.6-0.2-0.9
	c-0.2-1.7-0.2-3.4,0-5c-0.2-1.8-0.2-3.7,0.1-5.5c0-0.1-0.1-0.3-0.1-0.4c-0.2-1.4-0.2-2.8-0.1-4.2v-53c0-9.9,8.1-18,18-18h446
	c9.9,0,18,8.1,18,18v53.7c0.1,0.9,0.1,1.8,0,2.7c0,0.7,0,1.4,0,2.1c0,0.8,0,1.6,0,2.3c0.1,1.7,0,3.4-0.3,5c0.1,0.3,0.1,0.6,0.2,0.9
	c0.2,1.4,0.2,2.8,0.1,4.2L909,313.9L909,313.9z"/>
</svg>
