<?xml version="1.0" encoding="utf-8"?>
<!-- Generator: Adobe Illustrator 19.0.0, SVG Export Plug-In . SVG Version: 6.00 Build 0)  -->
<svg version="1.1" id="Layer_1" xmlns="http://www.w3.org/2000/svg" xmlns:xlink="http://www.w3.org/1999/xlink" x="0px" y="0px"
	 viewBox="146.8 -448.5 1038.2 1039.9" style="enable-background:new 146.8 -448.5 1038.2 1039.9;" xml:space="preserve">
<style type="text/css">
	.st0{opacity:0.1;fill:#FFFFFF;enable-background:new    ;}
	.st1{fill:none;stroke:#FFFFFF;stroke-width:13;stroke-miterlimit:10;stroke-dasharray:30.9719;}
	.st2{fill:none;stroke:#FFFFFF;stroke-width:20;stroke-miterlimit:10;stroke-dasharray:7.116,35.58;}
	.st3{fill:none;stroke:#FFFFFF;stroke-width:9;stroke-miterlimit:10;}
	.st4{fill:none;stroke:#FFFFFF;stroke-width:6;stroke-miterlimit:10;}
	.st5{fill:#FFFFFF;}
</style>
<g>
	<path class="st0" d="M1076.3,148L1076.3,148c-19.5-19.5-47.3-23.4-62.1-8.6l-47.8,47.8c-10.3,10.3-29.7,7.6-43.3-6l0,0
		c-13.6-13.6-16.3-33-6-43.3l246.4-246.4c14.8-14.8,10.9-42.6-8.6-62.1l0,0c-19.5-19.5-47.3-23.4-62.1-8.6L890.2,23.4
		c-10.3,10.3-29.7,7.6-43.3-6l0,0c-13.6-13.6-16.3-33-6-43.3L845-30c14.8-14.8,10.9-42.6-8.6-62.1l0,0
		c-19.5-19.5-47.3-23.4-62.1-8.6l-282,282c-14.8,14.8-10.9,42.6,8.6,62.1l0,0c19.5,19.5,47.3,23.4,62.1,8.6l54.3-54.3
		c10.3-10.3,29.7-7.6,43.3,6l0,0c13.6,13.6,16.3,33,6,43.3L398.8,514.8c-14.8,14.8-10.9,42.6,8.6,62.1l0,0
		c19.5,19.5,47.3,23.4,62.1,8.6l224-224c10.3-10.3,29.7-7.6,43.3,6l0,0c13.6,13.6,16.3,33,6,43.3l-10.5,10.5
		c-14.8,14.8-10.9,42.6,8.6,62.1l0,0c19.5,19.5,47.3,23.4,62.1,8.6l281.9-281.9C1099.7,195.3,1095.8,167.5,1076.3,148z"/>
	<path class="st0" d="M836.3-92.1L836.3-92.1c-19.5-19.5-47.3-23.4-62.1-8.6l-47.8,47.8c-10.3,10.3-29.7,7.6-43.3-6l0,0
		c-13.6-13.6-16.3-33-6-43.3l246.4-246.4c14.8-14.8,10.9-42.6-8.6-62.1l0,0c-19.5-19.5-47.3-23.4-62.1-8.6L650.2-216.6
		c-10.3,10.3-29.7,7.6-43.3-6l0,0c-13.6-13.6-16.3-33-6-43.3l4.1-4.1c14.8-14.8,10.9-42.6-8.6-62.1l0,0
		c-19.5-19.5-47.3-23.4-62.1-8.6l-282,281.9c-14.8,14.8-10.9,42.6,8.6,62.1l0,0c19.5,19.5,47.3,23.4,62.1,8.6l54.3-54.3
		c10.3-10.3,29.7-7.6,43.3,6l0,0c13.6,13.6,16.3,33,6,43.3L158.8,274.7c-14.8,14.8-10.9,42.6,8.6,62.1l0,0
		c19.5,19.5,47.3,23.4,62.1,8.6l224-224c10.3-10.3,29.7-7.6,43.3,6l0,0c13.6,13.6,16.3,33,6,43.3l-10.5,10.5
		c-14.8,14.8-10.9,42.6,8.6,62.1l0,0c19.5,19.5,47.3,23.4,62.1,8.6L844.9-30C859.7-44.7,855.8-72.5,836.3-92.1z"/>
</g>
<path class="st1" d="M1019.9,151.9c21.1,27,30.1,60,35.1,94c7,45-5,87-29,125c-3,3-5,6-7,10c-2,2-4,4-5,7c-2,2-4,4-6,6c-1,1-1,3-2,4
	c-41,48-103,69-164,65c-51-4-98-28-132-67c-1-1,0-2-1-3c-2-1-4-3-5.2-5.2"/>
<path class="st2" d="M340.4,6.5C334-6.3,328.1-18.9,324-33.6c-0.2-2-0.2-3-0.4-5c-19.4-71.7,9.9-148.2,71-188.9
	c0.9-1.1,1.8-2.1,2.8-3.2c58.2-39.5,136.2-42.3,195.5-5.1"/>
<circle id="XMLID_205_" class="st3" cx="675.9" cy="-235.6" r="29.6"/>
<circle id="XMLID_1_" class="st4" cx="769.3" cy="-268.1" r="17.8"/>
<circle id="XMLID_147_" class="st5" cx="352.2" cy="99.9" r="18.8"/>
<circle id="XMLID_2_" class="st5" cx="870.1" cy="-227.9" r="21.7"/>
<path class="st5" d="M375.6,199.6h-18.3v-18.3c0-3-2.4-5.4-5.4-5.4s-5.4,2.4-5.4,5.4v18.3h-18.2c-3,0-5.4,2.4-5.4,5.4
	s2.4,5.4,5.4,5.4h18.3v18.3c0,3,2.4,5.4,5.4,5.4s5.4-2.4,5.4-5.4v-18.3h18.3c3,0,5.4-2.4,5.4-5.4C381,202,378.6,199.6,375.6,199.6z"
	/>
<path class="st5" d="M891-165.1H445c-18.2,0-33,14.8-33,33v446c0,18.2,14.8,33,33,33h446c18.2,0,33-14.8,33-33v-446
	C924-150.3,909.2-165.1,891-165.1z M909,313.9c0,9.9-8.1,18-18,18H445c-9.9,0-18-8.1-18-18v-377h0.2c0-0.3-0.1-0.6-0.2-0.9
	c-0.2-1.7-0.2-3.4,0-5c-0.2-1.8-0.2-3.7,0.1-5.5c0-0.1-0.1-0.3-0.1-0.4c-0.2-1.4-0.2-2.8-0.1-4.2v-53c0-9.9,8.1-18,18-18h446
	c9.9,0,18,8.1,18,18v53.7c0.1,0.9,0.1,1.8,0,2.7c0,0.7,0,1.4,0,2.1c0,0.8,0,1.6,0,2.3c0.1,1.7,0,3.4-0.3,5c0.1,0.3,0.1,0.6,0.2,0.9
	c0.2,1.4,0.2,2.8,0.1,4.2L909,313.9L909,313.9z"/>
<g>
	<path class="st5" d="M510.8,233.8c0.9,0,1.7-0.2,2.6-0.5c20.5-8.9,55.1-13.6,102.9-13.8l4.6,9.3c1.6,3.2,5.5,4.5,8.6,2.9
		c3.2-1.6,4.5-5.4,2.9-8.6l-6.4-12.9c-1.1-2.2-3.3-3.6-5.8-3.6c-52.4,0-89,4.9-112,14.9c-3.3,1.4-4.7,5.2-3.3,8.5
		C506,232.4,508.4,233.8,510.8,233.8L510.8,233.8z"/>
	<path class="st5" d="M845.2,245.1h-12.9V213c0-1.7-0.7-3.3-1.9-4.5l-38.5-38.6c1.2-2.5,1.9-5.3,1.9-8.3c0-10.6-8.6-19.3-19.3-19.3
		c-10.6,0-19.3,8.6-19.3,19.3c0,10.6,8.6,19.3,19.3,19.3c3,0,5.7-0.7,8.3-1.9l36.7,36.7v29.5H485.3c-7.1,0-12.9,5.8-12.9,12.9v19.3
		c0,3.5,2.9,6.4,6.4,6.4s6.4-2.9,6.4-6.4v-19.3h359.9v19.3c0,3.5,2.9,6.4,6.4,6.4c3.6,0,6.4-2.9,6.4-6.4v-19.3
		C858.1,250.9,852.3,245.1,845.2,245.1L845.2,245.1z M774.6,168c-3.5,0-6.4-2.9-6.4-6.4s2.9-6.4,6.4-6.4s6.4,2.9,6.4,6.4
		S778.1,168,774.6,168L774.6,168z"/>
	<path class="st5" d="M564.3,90.3c4.7,12.2,20.2,51.5,31.4,68.4l1,1.5c8.3,12.5,22.1,33.5,68.6,33.5s60.3-20.9,68.6-33.5l1-1.5
		c11.2-16.9,26.7-56.2,31.4-68.4c8.4-2.1,14.6-9.7,14.6-18.7V45.9c0-8.4-5.4-15.5-12.9-18.2V-5.5c0-25.4-13.4-72.2-62.8-76.8
		c-0.1-3-1.1-5.5-2.2-7.3c-6.3-10.2-24.1-12.4-37.8-12.4C550.8-102,549.5,6.2,549.5,7.3c0,3.5,2.9,6.4,6.4,6.4l0,0
		c3.5,0,6.4-2.9,6.4-6.4c0-3.9,1.5-96.4,102.8-96.4c18.2,0,25.5,3.9,26.9,6.3c0.2,0.3,0.7,1.2-0.5,3.7c-1,2-0.9,4.4,0.3,6.3
		c1.2,1.9,3.2,3,5.5,3c57,0,57.8,61.7,57.8,64.3v38.6c0,3.5,2.9,6.4,6.4,6.4s6.4,2.9,6.4,6.4v25.7c0,3.5-2.9,6.4-6.4,6.4
		c-2.7,0-5.1,1.7-6,4.2c-0.2,0.5-19.2,50.9-31.5,69.4l-1.1,1.6c-7.7,11.7-18.3,27.7-57.9,27.7s-50.2-16-57.9-27.7l-1.1-1.6
		c-12.3-18.4-31.3-68.9-31.5-69.4c-0.9-2.5-3.3-4.2-6-4.2c-3.5,0-6.4-2.9-6.4-6.4V45.9c0-1.7,0.7-3.3,1.8-4.5
		c2.3,5.2,7.1,10,15.1,10.7l22,16.5c1.7,12.5,12.4,22.2,25.4,22.2h12.9c14.2,0,25.7-11.5,25.7-25.7c0,14.2,11.5,25.7,25.7,25.7h12.9
		c13,0,23.6-9.7,25.4-22.2L752.5,51c2.8-2.1,3.4-6.2,1.3-9s-6.2-3.4-9-1.3L728.4,53c-2.4-7.8-9.7-13.6-18.3-13.6h-25.7
		c-10.6,0-19.3,8.6-19.3,19.3c0-10.6-8.7-19.3-19.3-19.3h-25.7c-8.6,0-15.9,5.7-18.3,13.6l-12.3-9.2c5.1-12.2,9.6-30.3,10.9-43
		c20.3-0.4,78.9-2.8,104.9-19.1c5.9,22.8,24.9,42,25.8,43c2.5,2.5,6.6,2.5,9.1,0s2.5-6.6,0-9.1c-0.2-0.2-23.8-24.1-23.8-46.9
		c0-2.9-1.9-5.4-4.7-6.2c-2.8-0.8-5.7,0.4-7.2,2.9C695.1-19,634.4-12,594.3-12c-3.5,0-6.4,2.9-6.4,6.4c0,10.4-4.9,31.3-10.2,44.1
		c-2-1.2-2.6-3.5-2.7-5.5c0-3.5-2.9-6.4-6.4-6.4c-10.6,0-19.3,8.6-19.3,19.3v25.7C549.6,80.7,555.9,88.3,564.3,90.3L564.3,90.3z
		 M678.2,58.8c0-3.5,2.9-6.4,6.4-6.4h25.7c3.5,0,6.4,2.9,6.4,6.4v6.4c0,7.1-5.8,12.9-12.9,12.9H691c-7.1,0-12.9-5.8-12.9-12.9v-6.4
		H678.2z M613.9,58.8c0-3.5,2.9-6.4,6.4-6.4H646c3.5,0,6.4,2.9,6.4,6.4v6.4c0,7.1-5.8,12.9-12.9,12.9h-12.9
		c-7.1,0-12.9-5.8-12.9-12.9v-6.4H613.9z"/>
	<path class="st5" d="M697.4,129.5c0-3.5-2.9-6.4-6.4-6.4c-0.1,0-11.6-0.1-22.9-5.8c-1.8-0.9-3.9-0.9-5.7,0
		c-11.2,5.6-22.7,5.8-22.8,5.8c-3.5,0-6.4,2.9-6.4,6.4s2.9,6.4,6.4,6.4c0.5,0,12.7-0.1,25.7-5.8c13,5.7,25.2,5.8,25.7,5.8
		C694.5,135.9,697.4,133,697.4,129.5L697.4,129.5z"/>
	<path class="st5" d="M710.3,206.9c-2.4,0-4.6,1.4-5.7,3.5l-6.4,12.6c-1.6,3.2-0.4,7,2.8,8.6c0.9,0.5,1.9,0.7,2.9,0.7
		c2.3,0,4.6-1.3,5.7-3.5l4.6-9.1c35.1,0.1,63.4,2.7,84.1,7.8c3.5,0.9,6.9-1.3,7.8-4.7s-1.3-6.9-4.7-7.8
		C778.9,209.5,748.4,206.6,710.3,206.9L710.3,206.9z"/>
	<path class="st5" d="M658.9,213v12.9c0,3.5,2.9,6.4,6.4,6.4s6.4-2.9,6.4-6.4V213c0-3.5-2.9-6.4-6.4-6.4
		C661.7,206.6,658.9,209.5,658.9,213L658.9,213z"/>
	<path class="st5" d="M658.9,142.3c-3.5,0-6.4,2.9-6.4,6.4s2.9,6.4,6.4,6.4h12.9c3.6,0,6.4-2.9,6.4-6.4s-2.9-6.4-6.4-6.4H658.9z"/>
</g>
</svg>
