<?xml version="1.0" encoding="utf-8"?>
<!-- Generator: Adobe Illustrator 19.0.0, SVG Export Plug-In . SVG Version: 6.00 Build 0)  -->
<svg version="1.1" id="Layer_1" xmlns="http://www.w3.org/2000/svg" xmlns:xlink="http://www.w3.org/1999/xlink" x="0px" y="0px"
	 viewBox="148.2 -447.1 1038.4 1040.1" style="enable-background:new 148.2 -447.1 1038.4 1040.1;" xml:space="preserve">
<style type="text/css">
	.st0{opacity:0.1;fill:#FFFFFF;enable-background:new    ;}
	.st1{fill:#FFFFFF;}
	.st2{fill:none;stroke:#FFFFFF;stroke-width:13;stroke-miterlimit:10;stroke-dasharray:30.9719;}
	.st3{fill:none;stroke:#FFFFFF;stroke-width:20;stroke-miterlimit:10;stroke-dasharray:7.116,35.58;}
	.st4{fill:none;stroke:#FFFFFF;stroke-width:9;stroke-miterlimit:10;}
	.st5{fill:none;stroke:#FFFFFF;stroke-width:6;stroke-miterlimit:10;}
</style>
<g>
	<path class="st0" d="M1076.3,148L1076.3,148c-19.5-19.5-47.3-23.4-62.1-8.6l-47.8,47.8c-10.3,10.3-29.7,7.6-43.3-6l0,0
		c-13.6-13.6-16.3-33-6-43.3l246.4-246.4c14.8-14.8,10.9-42.6-8.6-62.1l0,0c-19.5-19.5-47.3-23.4-62.1-8.6L890.2,23.4
		c-10.3,10.3-29.7,7.6-43.3-6l0,0c-13.6-13.6-16.3-33-6-43.3L845-30c14.8-14.8,10.9-42.6-8.6-62.1l0,0
		c-19.5-19.5-47.3-23.4-62.1-8.6l-282,282c-14.8,14.8-10.9,42.6,8.6,62.1l0,0c19.5,19.5,47.3,23.4,62.1,8.6l54.3-54.3
		c10.3-10.3,29.7-7.6,43.3,6l0,0c13.6,13.6,16.3,33,6,43.3L398.8,514.8c-14.8,14.8-10.9,42.6,8.6,62.1l0,0
		c19.5,19.5,47.3,23.4,62.1,8.6l224-224c10.3-10.3,29.7-7.6,43.3,6l0,0c13.6,13.6,16.3,33,6,43.3l-10.5,10.5
		c-14.8,14.8-10.9,42.6,8.6,62.1l0,0c19.5,19.5,47.3,23.4,62.1,8.6l281.9-281.9C1099.7,195.3,1095.8,167.5,1076.3,148z"/>
	<path class="st0" d="M836.3-92.1L836.3-92.1c-19.5-19.5-47.3-23.4-62.1-8.6l-47.8,47.8c-10.3,10.3-29.7,7.6-43.3-6l0,0
		c-13.6-13.6-16.3-33-6-43.3l246.4-246.4c14.8-14.8,10.9-42.6-8.6-62.1l0,0c-19.5-19.5-47.3-23.4-62.1-8.6L650.2-216.6
		c-10.3,10.3-29.7,7.6-43.3-6l0,0c-13.6-13.6-16.3-33-6-43.3l4.1-4.1c14.8-14.8,10.9-42.6-8.6-62.1l0,0
		c-19.5-19.5-47.3-23.4-62.1-8.6l-282,281.9c-14.8,14.8-10.9,42.6,8.6,62.1l0,0c19.5,19.5,47.3,23.4,62.1,8.6l54.3-54.3
		c10.3-10.3,29.7-7.6,43.3,6l0,0c13.6,13.6,16.3,33,6,43.3L158.8,274.7c-14.8,14.8-10.9,42.6,8.6,62.1l0,0
		c19.5,19.5,47.3,23.4,62.1,8.6l224-224c10.3-10.3,29.7-7.6,43.3,6l0,0c13.6,13.6,16.3,33,6,43.3l-10.5,10.5
		c-14.8,14.8-10.9,42.6,8.6,62.1l0,0c19.5,19.5,47.3,23.4,62.1,8.6L844.9-30C859.7-44.7,855.8-72.5,836.3-92.1z"/>
</g>
<g>
	<path class="st1" d="M466.8-136.3c-12.1,0-22,9.9-22,22s9.9,22,22,22s22-9.9,22-22S478.9-136.3,466.8-136.3L466.8-136.3z
		 M466.8-107.3c-3.9,0-7-3.1-7-7s3.1-7,7-7s7,3.1,7,7S470.6-107.3,466.8-107.3L466.8-107.3z"/>
	<path class="st1" d="M522.8-136.3c-12.1,0-22,9.9-22,22s9.9,22,22,22c12.1,0,22-9.9,22-22S535-136.3,522.8-136.3L522.8-136.3z
		 M522.8-107.3c-3.9,0-7-3.1-7-7s3.1-7,7-7c3.9,0,7,3.1,7,7S526.7-107.3,522.8-107.3L522.8-107.3z"/>
	<path class="st1" d="M578.9-136.3c-12.1,0-22,9.9-22,22s9.9,22,22,22c12.1,0,22-9.9,22-22S591-136.3,578.9-136.3L578.9-136.3z
		 M578.9-107.3c-3.9,0-7-3.1-7-7s3.1-7,7-7c3.9,0,7,3.1,7,7S582.7-107.3,578.9-107.3L578.9-107.3z"/>
	<path class="st1" d="M891-165.1H445c-18.2,0-33,14.8-33,33v446c0,18.2,14.8,33,33,33h446c18.2,0,33-14.8,33-33v-446
		C924-150.3,909.2-165.1,891-165.1L891-165.1z M909,313.9c0,9.9-8.1,18-18,18H445c-9.9,0-18-8.1-18-18v-377h482V313.9z M909-78.1
		H427v-54c0-9.9,8.1-18,18-18h446c9.9,0,18,8.1,18,18V-78.1z"/>
	<path class="st1" d="M485.1,158.9h364.6c13.1,0,23.7-10,23.7-22.4v-157c0-12.3-10.6-22.4-23.7-22.4H734c-4.1,0-7.5,3.2-7.5,7.1
		s3.4,7.1,7.5,7.1h115.7c4.8,0,8.7,3.7,8.7,8.2v157c0,4.5-3.9,8.2-8.7,8.2H485.1c-4.8,0-8.7-3.7-8.7-8.2v-157c0-4.5,3.9-8.2,8.7-8.2
		h214.7c4.1,0,7.5-3.2,7.5-7.1s-3.4-7.1-7.5-7.1H485.1c-13.1,0-23.7,10-23.7,22.4v157C461.4,148.9,472,158.9,485.1,158.9
		L485.1,158.9z"/>
	<path class="st1" d="M694.2,51.5l-37.9-21.9c-4.6-2.6-10-2.6-14.5,0c-4.6,2.6-7.3,7.3-7.3,12.6V86c0,5.3,2.7,10,7.3,12.6
		c2.3,1.3,4.8,2,7.3,2s5-0.7,7.3-2l37.9-21.9c4.6-2.6,7.3-7.3,7.3-12.6C701.5,58.8,698.8,54.1,694.2,51.5L694.2,51.5z M649.5,85.2
		V43L686,64.1L649.5,85.2z"/>
	<path class="st1" d="M859.7,260.5h-204c-4.1,0-7.5,3.4-7.5,7.5s3.4,7.5,7.5,7.5h201.5v12.3H602.1v-12.3H621c4.1,0,7.5-3.4,7.5-7.5
		s-3.4-7.5-7.5-7.5h-19.4c-1.6-6.1-7.1-10.5-13.6-10.5h-18.3c-6.5,0-12,4.5-13.6,10.5H474c-6.9,0-12.5,5.6-12.5,12.5v17.2
		c0,6.9,5.6,12.5,12.5,12.5h82.1c1.6,6.1,7.1,10.5,13.6,10.5H588c6.5,0,12-4.5,13.6-10.5h258c6.9,0,12.5-5.6,12.5-12.5V273
		C872.2,266.1,866.6,260.5,859.7,260.5L859.7,260.5z M555.6,287.8h-79.1v-12.3h79.1V287.8z M587.1,298.3h-16.5V265h16.5V298.3z"/>
	<path class="st1" d="M857.3,177.2H723.1c-8.2,0-14.9,6.7-14.9,14.9v34.2c0,8.2,6.7,14.9,14.9,14.9h134.2c8.2,0,14.9-6.7,14.9-14.9
		v-34.2C872.2,183.9,865.5,177.2,857.3,177.2L857.3,177.2z M857.2,226.3h-134v-34h134V226.3z"/>
	<path class="st1" d="M741.5,216.8h99.4c4.1,0,7.5-3.4,7.5-7.5s-3.4-7.5-7.5-7.5h-99.4c-4.1,0-7.5,3.4-7.5,7.5
		C734,213.4,737.4,216.8,741.5,216.8L741.5,216.8z"/>
	<path class="st1" d="M496.5,197.4h-21.8c-4.1,0-7.5-3.4-7.5-7.5s3.4-7.5,7.5-7.5h21.8c4.1,0,7.5,3.4,7.5,7.5
		C504,194.1,500.7,197.4,496.5,197.4L496.5,197.4z"/>
	<path class="st1" d="M654,197.4H531.3c-4.1,0-7.5-3.4-7.5-7.5s3.4-7.5,7.5-7.5H654c4.1,0,7.5,3.4,7.5,7.5
		C661.5,194.1,658.1,197.4,654,197.4L654,197.4z"/>
	<path class="st1" d="M651.2,224.3h-53.7c-5.7,0-10.3-3.4-10.3-7.5c0-4.1,4.6-7.5,10.3-7.5h53.7c5.7,0,10.3,3.4,10.3,7.5
		C661.5,220.9,656.9,224.3,651.2,224.3L651.2,224.3z"/>
	<path class="st1" d="M559.7,224.3h-15.2c-4.1,0-7.5-3.4-7.5-7.5c0-4.1,3.4-7.5,7.5-7.5h15.2c4.1,0,7.5,3.4,7.5,7.5
		C567.2,220.9,563.8,224.3,559.7,224.3L559.7,224.3z"/>
	<path class="st1" d="M509.3,224.3h-34.6c-4.1,0-7.5-3.4-7.5-7.5c0-4.1,3.4-7.5,7.5-7.5h34.6c4.1,0,7.5,3.4,7.5,7.5
		C516.8,220.9,513.4,224.3,509.3,224.3L509.3,224.3z"/>
</g>
<path class="st2" d="M1019.9,151.9c21.1,27,30.1,60,35.1,94c7,45-5,87-29,125c-3,3-5,6-7,10c-2,2-4,4-5,7c-2,2-4,4-6,6c-1,1-1,3-2,4
	c-41,48-103,69-164,65c-51-4-98-28-132-67c-1-1,0-2-1-3c-2-1-4-3-5.2-5.2"/>
<path class="st3" d="M340.4,6.5C334-6.3,328.1-18.9,324-33.6c-0.2-2-0.2-3-0.4-5c-19.4-71.7,9.9-148.2,71-188.9
	c0.9-1.1,1.8-2.1,2.8-3.2c58.2-39.5,136.2-42.3,195.5-5.1"/>
<circle id="XMLID_205_" class="st4" cx="675.9" cy="-235.6" r="29.6"/>
<circle id="XMLID_1_" class="st5" cx="769.3" cy="-268.1" r="17.8"/>
<circle id="XMLID_147_" class="st1" cx="352.2" cy="99.9" r="18.8"/>
<circle id="XMLID_2_" class="st1" cx="870.1" cy="-227.9" r="21.7"/>
<path class="st1" d="M375.6,199.6h-18.3v-18.3c0-3-2.4-5.4-5.4-5.4s-5.4,2.4-5.4,5.4v18.3h-18.2c-3,0-5.4,2.4-5.4,5.4
	s2.4,5.4,5.4,5.4h18.3v18.3c0,3,2.4,5.4,5.4,5.4s5.4-2.4,5.4-5.4v-18.3h18.3c3,0,5.4-2.4,5.4-5.4C381,202,378.6,199.6,375.6,199.6z"
	/>
</svg>
